<svg id="dsrca_loading_960x270" xmlns="http://www.w3.org/2000/svg" viewBox="0 0 960 270"><defs><style>.cls-1{fill:#e5e2e4;}.cls-2{fill:#9ea1a3;}.cls-3{fill:#8aa2d3;}</style></defs><rect class="cls-1" width="960" height="270"/><rect class="cls-2" x="410.343" y="119.28" width="20" height="60"/><rect class="cls-2" x="440.343" y="119.28" width="20" height="60"/><rect class="cls-2" x="450.343" y="159.28" width="40" height="20"/><rect class="cls-2" x="500.343" y="119.28" width="20" height="60"/><rect class="cls-2" x="410.343" y="59.28" width="110" height="20"/><rect class="cls-2" x="410.343" y="89.28" width="110" height="20"/><rect class="cls-2" x="470.343" y="99.28" width="20" height="50"/><rect class="cls-2" x="480.343" y="119.28" width="40" height="10"/><rect class="cls-3" x="530.343" y="59.28" width="20" height="120"/><path class="cls-3" d="M400.291,189.664h4.86v21.168h10.908v4.608H400.291Z"/><path class="cls-3" d="M431.179,216.017a13.585,13.585,0,0,1-5.346-1.044,13.033,13.033,0,0,1-7.092-7.147,14.068,14.068,0,0,1,0-10.548,13.021,13.021,0,0,1,7.092-7.145,14.21,14.21,0,0,1,10.692,0,13.021,13.021,0,0,1,7.092,7.145,14.068,14.068,0,0,1,0,10.548,13.033,13.033,0,0,1-7.092,7.147A13.588,13.588,0,0,1,431.179,216.017Zm0-4.609a8.737,8.737,0,0,0,3.366-.647,8.489,8.489,0,0,0,2.736-1.8,8.2,8.2,0,0,0,1.836-2.789,10.16,10.16,0,0,0,0-7.236,8.2,8.2,0,0,0-1.836-2.79,8.47,8.47,0,0,0-2.736-1.8,9.053,9.053,0,0,0-6.732,0,8.449,8.449,0,0,0-2.736,1.8,8.173,8.173,0,0,0-1.836,2.79,10.16,10.16,0,0,0,0,7.236,8.169,8.169,0,0,0,1.836,2.789,8.468,8.468,0,0,0,2.736,1.8A8.734,8.734,0,0,0,431.179,211.408Z"/><path class="cls-3" d="M455.371,189.664h5.544L470.6,215.44h-5.364l-2.124-6.156h-9.936l-2.124,6.156h-5.364Zm6.156,15.156-2.3-6.444-.936-3.132H458l-.936,3.132-2.3,6.444Z"/><path class="cls-3" d="M473.622,189.664h8.712a15.326,15.326,0,0,1,5.508.937,11.883,11.883,0,0,1,4.176,2.645,11.509,11.509,0,0,1,2.646,4.086,15.405,15.405,0,0,1,0,10.477,11.31,11.31,0,0,1-2.646,4.067,12.006,12.006,0,0,1-4.176,2.629,15.326,15.326,0,0,1-5.508.935h-8.712Zm8.5,21.168a10.824,10.824,0,0,0,3.744-.594,7.313,7.313,0,0,0,2.7-1.674,6.858,6.858,0,0,0,1.619-2.61,10.986,10.986,0,0,0,0-6.8,6.889,6.889,0,0,0-1.619-2.61,7.339,7.339,0,0,0-2.7-1.674,10.871,10.871,0,0,0-3.744-.594h-3.636v16.56Z"/><path class="cls-2" d="M499.506,189.664h4.86V215.44h-4.86Z"/><path class="cls-2" d="M509.55,189.664H515.2l10.368,17.28h.288l-.288-4.967V189.664h4.824V215.44h-5.112l-10.944-18.252h-.288l.288,4.968V215.44H509.55Z"/><path class="cls-2" d="M547.458,201.292h12.636a8.467,8.467,0,0,1,.18,1.045,10.454,10.454,0,0,1,.072,1.224,14.272,14.272,0,0,1-.756,4.679,10.826,10.826,0,0,1-2.376,3.924,11.913,11.913,0,0,1-4.14,2.845,14.2,14.2,0,0,1-5.508,1.008,13.957,13.957,0,0,1-5.292-1.008,13.177,13.177,0,0,1-4.32-2.809,13.443,13.443,0,0,1-2.916-4.265,13.95,13.95,0,0,1,0-10.764,13.452,13.452,0,0,1,2.916-4.267,13.188,13.188,0,0,1,4.32-2.807,14.73,14.73,0,0,1,10.89.071,12.564,12.564,0,0,1,4.23,2.988l-3.348,3.277a9.152,9.152,0,0,0-9.864-2.107,8.425,8.425,0,0,0-2.772,1.782,8.515,8.515,0,0,0-1.89,2.79,9.861,9.861,0,0,0,0,7.308,8.338,8.338,0,0,0,1.908,2.79,8.56,8.56,0,0,0,2.79,1.782,9.908,9.908,0,0,0,6.858.036,8.134,8.134,0,0,0,2.43-1.53,5.844,5.844,0,0,0,1.242-1.638,9.323,9.323,0,0,0,.81-2.213h-8.1Z"/></svg>