<svg id="dsrca_loading_480x270" xmlns="http://www.w3.org/2000/svg" viewBox="0 0 480 270"><defs><style>.cls-1{fill:#e5e2e4;}.cls-2{fill:#9ea1a3;}.cls-3{fill:#8aa2d3;}</style></defs><rect class="cls-1" width="480" height="270"/><rect class="cls-2" x="170" y="119" width="20" height="60"/><rect class="cls-2" x="200" y="119" width="20" height="60"/><rect class="cls-2" x="210" y="159" width="40" height="20"/><rect class="cls-2" x="260" y="119" width="20" height="60"/><rect class="cls-2" x="170" y="59" width="110" height="20"/><rect class="cls-2" x="170" y="89" width="110" height="20"/><rect class="cls-2" x="230" y="99" width="20" height="50"/><rect class="cls-2" x="240" y="119" width="40" height="10"/><rect class="cls-3" x="290" y="59" width="20" height="120"/><path class="cls-3" d="M159.948,189.384h4.861v21.168h10.907v4.608H159.948Z"/><path class="cls-3" d="M190.836,215.736a13.571,13.571,0,0,1-5.346-1.044,13.027,13.027,0,0,1-7.092-7.146,14.068,14.068,0,0,1,0-10.548,13.021,13.021,0,0,1,7.092-7.145,14.21,14.21,0,0,1,10.692,0A13.021,13.021,0,0,1,203.274,197a14.068,14.068,0,0,1,0,10.548,13.027,13.027,0,0,1-7.092,7.146A13.571,13.571,0,0,1,190.836,215.736Zm0-4.608a8.716,8.716,0,0,0,3.366-.648,8.476,8.476,0,0,0,2.736-1.8,8.193,8.193,0,0,0,1.836-2.789,10.163,10.163,0,0,0,0-7.237,8.207,8.207,0,0,0-1.836-2.79,8.492,8.492,0,0,0-2.736-1.8,9.066,9.066,0,0,0-6.732,0,8.492,8.492,0,0,0-2.736,1.8,8.207,8.207,0,0,0-1.836,2.79,10.163,10.163,0,0,0,0,7.237,8.193,8.193,0,0,0,1.836,2.789,8.476,8.476,0,0,0,2.736,1.8A8.716,8.716,0,0,0,190.836,211.128Z"/><path class="cls-3" d="M215.028,189.384h5.544l9.684,25.776h-5.364L222.768,209h-9.936l-2.124,6.156h-5.364Zm6.156,15.156-2.3-6.444-.936-3.132h-.288l-.936,3.132-2.3,6.444Z"/><path class="cls-3" d="M233.279,189.384h8.713a15.334,15.334,0,0,1,5.508.936,11.9,11.9,0,0,1,4.176,2.646,11.5,11.5,0,0,1,2.645,4.086,15.4,15.4,0,0,1,0,10.476,11.312,11.312,0,0,1-2.645,4.068,12.024,12.024,0,0,1-4.176,2.629,15.334,15.334,0,0,1-5.508.935h-8.713Zm8.5,21.168a10.857,10.857,0,0,0,3.745-.594,7.3,7.3,0,0,0,2.7-1.674,6.888,6.888,0,0,0,1.62-2.61,11.006,11.006,0,0,0,0-6.8,6.9,6.9,0,0,0-1.62-2.61,7.314,7.314,0,0,0-2.7-1.674,10.857,10.857,0,0,0-3.745-.594H238.14v16.56Z"/><path class="cls-2" d="M259.163,189.384h4.86V215.16h-4.86Z"/><path class="cls-2" d="M269.207,189.384h5.652l10.369,17.28h.288l-.288-4.968V189.384h4.823V215.16h-5.112L274,196.908h-.288l.288,4.968V215.16h-4.788Z"/><path class="cls-2" d="M307.115,201.012h12.636a8.607,8.607,0,0,1,.181,1.045A10.67,10.67,0,0,1,320,203.28a14.274,14.274,0,0,1-.756,4.68,10.834,10.834,0,0,1-2.376,3.924,11.926,11.926,0,0,1-4.14,2.845,14.213,14.213,0,0,1-5.507,1.007,13.972,13.972,0,0,1-5.292-1.007,13.171,13.171,0,0,1-4.321-2.809,13.452,13.452,0,0,1-2.916-4.266,13.948,13.948,0,0,1,0-10.763,13.468,13.468,0,0,1,2.916-4.267,13.185,13.185,0,0,1,4.321-2.808,14.735,14.735,0,0,1,10.889.072,12.536,12.536,0,0,1,4.23,2.988l-3.348,3.276a9.153,9.153,0,0,0-9.864-2.106,8.425,8.425,0,0,0-2.772,1.782,8.52,8.52,0,0,0-1.89,2.79,9.874,9.874,0,0,0,0,7.308,8.363,8.363,0,0,0,1.908,2.79,8.587,8.587,0,0,0,2.79,1.782,9.908,9.908,0,0,0,6.858.036,8.121,8.121,0,0,0,2.43-1.53,5.836,5.836,0,0,0,1.242-1.638,9.315,9.315,0,0,0,.81-2.214h-8.1Z"/></svg>