<svg id="dsrca_loading_480x540" xmlns="http://www.w3.org/2000/svg" viewBox="0 0 480 540"><defs><style>.cls-1{fill:#e5e2e4;}.cls-2{fill:#9ea1a3;}.cls-3{fill:#8aa2d3;}</style></defs><rect class="cls-1" width="480" height="540"/><rect class="cls-2" x="170.438" y="254.25" width="20" height="60"/><rect class="cls-2" x="200.438" y="254.25" width="20" height="60"/><rect class="cls-2" x="210.438" y="294.25" width="40" height="20"/><rect class="cls-2" x="260.438" y="254.25" width="20" height="60"/><rect class="cls-2" x="170.438" y="194.25" width="110" height="20"/><rect class="cls-2" x="170.438" y="224.25" width="110" height="20"/><rect class="cls-2" x="230.438" y="234.25" width="20" height="50"/><rect class="cls-2" x="240.438" y="254.25" width="40" height="10"/><rect class="cls-3" x="290.438" y="194.25" width="20" height="120"/><path class="cls-3" d="M160.386,324.634h4.86V345.8h10.908v4.608H160.386Z"/><path class="cls-3" d="M191.273,350.986a13.562,13.562,0,0,1-5.345-1.044,13.119,13.119,0,0,1-4.266-2.862,13.258,13.258,0,0,1-2.827-4.284,14.081,14.081,0,0,1,0-10.548,13.268,13.268,0,0,1,2.827-4.284,13.132,13.132,0,0,1,4.266-2.861,14.21,14.21,0,0,1,10.692,0,13.015,13.015,0,0,1,7.091,7.145,14.068,14.068,0,0,1,0,10.548,13.021,13.021,0,0,1-7.091,7.146A13.576,13.576,0,0,1,191.273,350.986Zm0-4.608a8.721,8.721,0,0,0,3.367-.648,8.471,8.471,0,0,0,2.735-1.8,8.193,8.193,0,0,0,1.836-2.789,10.163,10.163,0,0,0,0-7.237,8.207,8.207,0,0,0-1.836-2.79,8.488,8.488,0,0,0-2.735-1.8,9.066,9.066,0,0,0-6.732,0,8.5,8.5,0,0,0-2.737,1.8,8.207,8.207,0,0,0-1.836,2.79,10.163,10.163,0,0,0,0,7.237,8.193,8.193,0,0,0,1.836,2.789,8.48,8.48,0,0,0,2.737,1.8A8.711,8.711,0,0,0,191.273,346.378Z"/><path class="cls-3" d="M215.466,324.634h5.544l9.684,25.776H225.33l-2.124-6.156H213.27l-2.124,6.156h-5.364Zm6.156,15.156-2.305-6.444-.935-3.132h-.288l-.936,3.132-2.3,6.444Z"/><path class="cls-3" d="M233.717,324.634h8.713a15.334,15.334,0,0,1,5.508.936,11.9,11.9,0,0,1,4.175,2.646,11.5,11.5,0,0,1,2.646,4.086,15.4,15.4,0,0,1,0,10.476,11.314,11.314,0,0,1-2.646,4.068,12.02,12.02,0,0,1-4.175,2.629,15.334,15.334,0,0,1-5.508.935h-8.713Zm8.5,21.168a10.847,10.847,0,0,0,3.744-.594,7.292,7.292,0,0,0,2.7-1.674,6.863,6.863,0,0,0,1.62-2.61,11.006,11.006,0,0,0,0-6.8,6.871,6.871,0,0,0-1.62-2.61,7.305,7.305,0,0,0-2.7-1.674,10.847,10.847,0,0,0-3.744-.594h-3.636V345.8Z"/><path class="cls-2" d="M259.6,324.634h4.86V350.41H259.6Z"/><path class="cls-2" d="M269.645,324.634H275.3l10.368,17.28h.288l-.288-4.968V324.634h4.823V350.41h-5.111l-10.944-18.252h-.288l.288,4.968V350.41h-4.788Z"/><path class="cls-2" d="M307.553,336.262h12.635a8.416,8.416,0,0,1,.181,1.045,10.449,10.449,0,0,1,.071,1.223,14.3,14.3,0,0,1-.755,4.68,10.834,10.834,0,0,1-2.376,3.924,11.945,11.945,0,0,1-4.14,2.845,14.214,14.214,0,0,1-5.508,1.007,13.972,13.972,0,0,1-5.292-1.007,13.167,13.167,0,0,1-4.32-2.809,13.436,13.436,0,0,1-2.916-4.266,13.948,13.948,0,0,1,0-10.763,13.452,13.452,0,0,1,2.916-4.267,13.18,13.18,0,0,1,4.32-2.808,14.737,14.737,0,0,1,10.89.072,12.532,12.532,0,0,1,4.229,2.988l-3.347,3.276a9.155,9.155,0,0,0-9.865-2.106,8.431,8.431,0,0,0-2.771,1.782,8.522,8.522,0,0,0-1.891,2.79,9.874,9.874,0,0,0,0,7.308,8.377,8.377,0,0,0,1.908,2.79,8.591,8.591,0,0,0,2.791,1.782,9.908,9.908,0,0,0,6.858.036,8.134,8.134,0,0,0,2.43-1.53,5.873,5.873,0,0,0,1.242-1.638,9.314,9.314,0,0,0,.809-2.214h-8.1Z"/></svg>